<?xml version="1.0" standalone="no"?>
<!DOCTYPE svg PUBLIC "-//W3C//DTD SVG 20010904//EN"
 "http://www.w3.org/TR/2001/REC-SVG-20010904/DTD/svg10.dtd">
<svg version="1.0" xmlns="http://www.w3.org/2000/svg"
 width="260.000000pt" height="260.000000pt" viewBox="0 0 260.000000 260.000000"
 preserveAspectRatio="xMidYMid meet">
<metadata>
Created by potrace 1.11, written by Peter Selinger 2001-2013
</metadata>
<g transform="translate(0.000000,260.000000) scale(0.100000,-0.100000)"
fill="#000000" stroke="none">
<path d="M1120 2040 c-47 -14 -108 -49 -140 -82 -38 -37 -86 -132 -95 -189 -4
-23 -13 -40 -23 -43 -9 -2 -86 -4 -171 -4 -161 1 -181 -5 -160 -43 7 -15 4
-18 -19 -21 -22 -2 -27 -8 -25 -28 l1 -25 -234 2 c-243 1 -265 -3 -250 -42 5
-13 41 -15 255 -15 228 0 251 2 259 18 5 9 8 22 6 27 -3 6 16 10 45 10 46 0
50 -1 53 -27 4 -28 4 -28 -51 -28 -66 0 -86 -10 -79 -38 5 -16 1 -22 -16 -24
-15 -2 -21 -10 -21 -28 0 -14 -8 -33 -17 -42 -14 -14 -36 -99 -30 -120 2 -9 1
-10 -61 -12 -55 -2 -77 -18 -61 -44 8 -12 23 -16 58 -15 46 2 47 1 44 -25 l-3
-27 -173 -3 c-142 -2 -174 -5 -179 -17 -13 -36 12 -42 178 -41 159 1 162 1
170 -21 5 -13 14 -24 21 -24 7 -1 0 -4 -17 -8 -22 -4 -31 -13 -33 -31 -2 -13
-11 -29 -20 -36 -9 -6 -13 -19 -10 -31 5 -18 0 -19 -59 -18 -68 1 -91 -13 -73
-45 7 -13 44 -15 224 -14 l216 0 1 -25 c3 -121 69 -225 177 -278 l57 -28 600
-3 c645 -4 670 -2 746 47 74 46 95 89 187 379 78 245 85 274 86 352 1 98 -12
134 -74 198 -70 74 -109 85 -313 87 -97 1 -180 4 -183 7 -3 4 -1 22 5 42 29
106 -12 233 -100 308 -83 72 -112 77 -412 77 -144 -1 -273 -4 -287 -9z"/>
<path d="M330 1825 c-6 -7 -8 -20 -4 -29 6 -15 28 -16 203 -14 192 3 196 3
199 25 2 14 -3 23 -15 26 -10 3 -98 5 -195 5 -129 0 -181 -4 -188 -13z"/>
</g>
</svg>
